<svg id="Layer" xmlns="http://www.w3.org/2000/svg" xmlns:xlink="http://www.w3.org/1999/xlink" viewBox="0 0 301.2 162.6"><defs><filter id="luminosity-noclip" x="65.8" y="-8310" width="270.18" height="32766" filterUnits="userSpaceOnUse" color-interpolation-filters="sRGB"><feFlood flood-color="#fff" result="bg"/><feBlend in="SourceGraphic" in2="bg"/></filter><mask id="mask" x="65.8" y="-8310" width="270.18" height="32766" maskUnits="userSpaceOnUse"><g filter="url(#luminosity-noclip)"/></mask><linearGradient id="Névtelen_színátmenet_4" x1="65.8" y1="41.61" x2="335.99" y2="41.61" gradientUnits="userSpaceOnUse"><stop offset="0" stop-color="#b3b3b3"/><stop offset="0.08" stop-color="#979797"/><stop offset="0.24" stop-color="#6b6b6b"/><stop offset="0.39" stop-color="#464646"/><stop offset="0.55" stop-color="#2a2a2a"/><stop offset="0.7" stop-color="#151515"/><stop offset="0.85" stop-color="#090909"/><stop offset="1" stop-color="#050505"/></linearGradient><linearGradient id="Névtelen_színátmenet_594" x1="34.78" y1="184.92" x2="79.32" y2="184.92" gradientUnits="userSpaceOnUse"><stop offset="0" stop-color="#fff"/><stop offset="0.22" stop-color="#f4f6f6"/><stop offset="0.61" stop-color="#d7dedd"/><stop offset="1" stop-color="#b4c1bf"/></linearGradient><linearGradient id="Névtelen_színátmenet_71" x1="35.3" y1="179.74" x2="78.92" y2="179.74" gradientUnits="userSpaceOnUse"><stop offset="0" stop-color="#4b357b"/><stop offset="0.26" stop-color="#50387e"/><stop offset="0.55" stop-color="#5d4089"/><stop offset="0.86" stop-color="#734d99"/><stop offset="1" stop-color="#8055a3"/></linearGradient><filter id="luminosity-noclip-2" x="65.8" y="31.53" width="270.18" height="20.16" filterUnits="userSpaceOnUse" color-interpolation-filters="sRGB"><feFlood flood-color="#fff" result="bg"/><feBlend in="SourceGraphic" in2="bg"/></filter><mask id="mask-2" x="31.02" y="4.25" width="270.18" height="20.16" maskUnits="userSpaceOnUse"><g filter="url(#luminosity-noclip-2)"><g transform="translate(-34.78 -27.27)"><g mask="url(#mask)"><polygon points="335.99 31.53 65.85 36.23 65.8 44.74 335.99 51.69 335.99 31.53" fill="url(#Névtelen_színátmenet_4)" style="mix-blend-mode:multiply"/></g></g></g></mask><linearGradient id="Névtelen_színátmenet_99" x1="31.02" y1="14.34" x2="301.2" y2="14.34" gradientUnits="userSpaceOnUse"><stop offset="0" stop-color="#fff9ae"/><stop offset="0.11" stop-color="#fffabe"/><stop offset="0.33" stop-color="#fffcda"/><stop offset="0.56" stop-color="#fffeef"/><stop offset="0.78" stop-color="#fffffb"/><stop offset="1" stop-color="#fff"/></linearGradient><linearGradient id="Névtelen_színátmenet_71-2" x1="39.29" y1="103.7" x2="75" y2="103.7" xlink:href="#Névtelen_színátmenet_71"/><linearGradient id="Névtelen_színátmenet_71-3" x1="37.85" y1="143.3" x2="76.44" y2="143.3" xlink:href="#Névtelen_színátmenet_71"/></defs><title>lighthouse</title><path d="M48.49,44.75v12A77.75,77.75,0,0,1,57,56.27a81.66,81.66,0,0,1,8.84.47v-12A81.66,81.66,0,0,0,57,44.27,74.92,74.92,0,0,0,48.49,44.75Z" transform="translate(-34.78 -27.27)" fill="#2a1041"/><path d="M56.86,27.27l-9.49,9.1a36.89,36.89,0,0,1,9.49-1.13,36.87,36.87,0,0,1,9.5,1.13Z" transform="translate(-34.78 -27.27)" fill="#864688"/><path d="M56.86,35.24a40.91,40.91,0,0,0-8.41.84l0,8.67A74.58,74.58,0,0,1,57,44.27a81.66,81.66,0,0,1,8.84.47l0-8.51A38.81,38.81,0,0,0,56.86,35.24Z" transform="translate(-34.78 -27.27)" fill="#f4f095"/><rect x="20.29" y="35.65" width="4.15" height="7.18" fill="#aa7fb9"/><rect x="20.87" y="36.13" width="2.99" height="6.07" fill="#2a1041"/><path d="M57.11,179.41c9.52,0,20.06-1.22,20.06-1.22l.07.06L73.6,78c-4.47-3.23-12.21-3.66-16.45-3.66S45.71,74.7,40.69,78L37.06,178.19C37.24,178.21,47.67,179.41,57.11,179.41Z" transform="translate(-34.78 -27.27)" fill="#aa7fb9"/><path d="M53.89,180.05v-8.92l0-.11a3.44,3.44,0,0,1,6.54,0v9Z" transform="translate(-34.78 -27.27)" fill="#2a1041"/><path d="M57.12,179.41l-3.28.64-.64,1.08,3.92,0Z" transform="translate(-34.78 -27.27)" fill="#aa7fb9"/><path d="M57.12,179.41l3.34.64.59,1.08-3.93,0Z" transform="translate(-34.78 -27.27)" fill="#aa7fb9"/><path d="M57.15,189.88a216.25,216.25,0,0,0,22.17-1.42l-.51-8.5c-5.87.38-14.17.73-18.66.91-2.07.08-4.12.08-6.19,0-4.49-.18-12.79-.53-18.66-.91l-.52,8.5A216.52,216.52,0,0,0,57,189.88h.2Z" transform="translate(-34.78 -27.27)" fill="url(#Névtelen_színátmenet_594)"/><polygon points="28.07 155.39 16.61 155.39 16.67 155.01 28.02 155.01 28.07 155.39" fill="#8e969c"/><polygon points="28.23 156.55 16.46 156.55 16.61 155.39 28.07 155.39 28.23 156.55" fill="#2a1041"/><polygon points="28.28 156.93 16.4 156.93 16.46 156.55 28.23 156.55 28.28 156.93" fill="#8e969c"/><polygon points="28.44 158.08 16.25 158.08 16.4 156.93 28.28 156.93 28.44 158.08" fill="#2a1041"/><polygon points="28.49 158.47 16.19 158.47 16.25 158.08 28.44 158.08 28.49 158.47" fill="#8e969c"/><polygon points="28.65 159.62 16.04 159.62 16.19 158.47 28.49 158.47 28.65 159.62" fill="#2a1041"/><polygon points="28.7 160 15.98 160 16.04 159.62 28.65 159.62 28.7 160" fill="#8e969c"/><polygon points="28.86 161.16 15.82 161.16 15.98 160 28.7 160 28.86 161.16" fill="#2a1041"/><polygon points="28.91 161.54 15.77 161.54 15.82 161.16 28.86 161.16 28.91 161.54" fill="#8e969c"/><path d="M57,189.88h.2c2.22,0,4.48-.07,6.66-.17l-.12-.9H50.55l-.12.91c2.14.09,4.35.15,6.52.16Z" transform="translate(-34.78 -27.27)" fill="#2a1041"/><path d="M77.17,178.19s-10.54,1.22-20.06,1.22-20.06-1.22-20.06-1.22L35.3,180C49.93,181.34,57,181.29,57,181.29h.2s7.08.05,21.71-1.33Z" transform="translate(-34.78 -27.27)" fill="url(#Névtelen_színátmenet_71)"/><path d="M57.21,181.29H57s-1.78,0-5.4-.15l-.16,1.14H62.8l-.16-1.14C59,181.3,57.21,181.29,57.21,181.29Z" transform="translate(-34.78 -27.27)" fill="#2a1041"/><g mask="url(#mask-2)"><polygon points="301.2 4.25 31.07 8.96 31.02 17.47 301.2 24.42 301.2 4.25" fill="url(#Névtelen_színátmenet_99)"/></g><path d="M75,116.5l-.92-25.37a292.16,292.16,0,0,0-33.87.17l-.92,25.38A267.63,267.63,0,0,1,75,116.5Z" transform="translate(-34.78 -27.27)" fill="url(#Névtelen_színátmenet_71-2)"/><path d="M38.77,130.94l-.92,25.39a268.67,268.67,0,0,1,38.59-.19l-.92-25.38A294.53,294.53,0,0,0,38.77,130.94Z" transform="translate(-34.78 -27.27)" fill="url(#Névtelen_színátmenet_71-3)"/><rect x="19.22" y="70.27" width="6.29" height="10.87" fill="#f8f7f3"/><rect x="20.1" y="71" width="4.52" height="9.19" fill="#2a1041"/><rect x="19.22" y="109.35" width="6.29" height="10.87" fill="#f8f7f3"/><rect x="20.1" y="110.08" width="4.52" height="9.19" fill="#2a1041"/><path d="M77.27,68.84v-.53a112.79,112.79,0,0,0-40.14,0v.53h0v7.07h0V78.7a110.75,110.75,0,0,1,40.14,0v-2.8h0V68.84ZM50.73,67.21l1.77-.1v7.1l-1.77.11Zm-.43,7.14-1.76.11v-7.1l1.76-.13Zm2.62-7.25c.59,0,1.18,0,1.77-.06v7.12l-1.77,0Zm2.2-.07,1.76,0v7.1c-.59,0-1.18,0-1.76,0Zm2.19,0,1.79,0v7.12c-.6,0-1.2,0-1.79,0Zm2.21,0,1.79,0V74.2l-1.79,0Zm2.21.07c.6,0,1.2.06,1.79.09v7.11c-.59,0-1.19-.08-1.79-.1Zm2.22.11,1.79.13v7.11c-.6,0-1.19-.09-1.79-.12ZM37.58,68.77q5.28-.94,10.53-1.38v7.1l-1.76.16v-7h-.43V74.7l-1.76.2v-7h-.43v7c-.59.08-1.18.13-1.77.21v-7h-.42v7c-.59.08-1.18.18-1.77.28v-7h-.42v7.09l-1.77.28Zm39.23,7.07c-.6-.11-1.19-.19-1.79-.28V68.47H74.6v7c-.6-.09-1.2-.2-1.79-.28v-7h-.43v7c-.6-.08-1.19-.13-1.79-.2v-7h-.43v7l-1.78-.2V67.63H68v7l-1.79-.16v-7.1q5.32.44,10.65,1.39Z" transform="translate(-34.78 -27.27)" fill="#530c41"/><path d="M45.61,77.49l-.45.05,2,4.35a.22.22,0,0,0,.19.13l.1,0a.25.25,0,0,0,.09-.31Z" transform="translate(-34.78 -27.27)" fill="#06082d"/><path d="M41.77,78l-.49.07,2.65,3.89a.21.21,0,0,0,.18.1.19.19,0,0,0,.12,0,.25.25,0,0,0,.05-.33Z" transform="translate(-34.78 -27.27)" fill="#06082d"/><path d="M49.09,77.18l1.32,4.68a.21.21,0,0,0,.21.16h.06a.23.23,0,0,0,.14-.28l-1.29-4.59Z" transform="translate(-34.78 -27.27)" fill="#06082d"/><path d="M53,77l.68,4.88a.21.21,0,0,0,.21.18h0a.21.21,0,0,0,.18-.24L53.41,77Z" transform="translate(-34.78 -27.27)" fill="#06082d"/><path d="M56.91,76.88v4.93a.21.21,0,0,0,.22.21.21.21,0,0,0,.21-.21V76.88Z" transform="translate(-34.78 -27.27)" fill="#06082d"/><path d="M61,77l-.67,4.83a.21.21,0,0,0,.18.24h0a.21.21,0,0,0,.21-.18L61.43,77Z" transform="translate(-34.78 -27.27)" fill="#06082d"/><path d="M64.88,77.15l-1.29,4.58a.23.23,0,0,0,.14.28h.07a.21.21,0,0,0,.2-.16l1.32-4.68Z" transform="translate(-34.78 -27.27)" fill="#06082d"/><path d="M68.8,77.49l-1.94,4.2A.25.25,0,0,0,67,82l.1,0a.22.22,0,0,0,.19-.13l2-4.35Z" transform="translate(-34.78 -27.27)" fill="#06082d"/><path d="M72.64,78l-2.51,3.68a.25.25,0,0,0,.05.33.19.19,0,0,0,.12,0,.21.21,0,0,0,.18-.1L73.12,78Z" transform="translate(-34.78 -27.27)" fill="#06082d"/><path d="M40.92,81.67l-2-1.92a4.7,4.7,0,0,0,1.68.33l0-2-3.55.59L40.64,82a.2.2,0,0,0,.14.06.22.22,0,0,0,.15-.06A.21.21,0,0,0,40.92,81.67Z" transform="translate(-34.78 -27.27)" fill="#0d0e36"/><path d="M73.61,78.1l.07,2a4.92,4.92,0,0,0,1.85-.39l-2,2a.21.21,0,0,0,0,.29.22.22,0,0,0,.15.06.2.2,0,0,0,.14-.06l3.5-3.25Z" transform="translate(-34.78 -27.27)" fill="#0d0e36"/><path d="M71.21,52.58v-.37a78.69,78.69,0,0,0-28,0v.37h0v4.94h0v2a77.33,77.33,0,0,1,28.05,0v-2h0V52.58ZM52.66,51.44l1.24-.06v5c-.41,0-.83,0-1.24.07Zm-.3,5-1.23.08v-5q.61-.06,1.23-.09Zm1.83-5.06,1.24,0v5l-1.24,0Zm1.54,0H57v5l-1.23,0Zm1.53,0,1.25,0v5c-.42,0-.83,0-1.25,0Zm1.55,0,1.25,0v5l-1.25,0Zm1.54,0,1.25.07v5l-1.25-.07Zm1.55.08,1.25.09v5l-1.25-.09ZM43.47,52.53q3.69-.66,7.36-1v5l-1.23.11V51.73h-.3v5l-1.23.14V51.93h-.3v4.92L46.53,57V52.13h-.29V57L45,57.23V52.32h-.3v5c-.41.07-.82.12-1.23.2Zm27.42,4.94-1.25-.19v-5h-.3v4.91L68.09,57v-4.9H67.8V57l-1.25-.15V51.93h-.3v4.88L65,56.67V51.73h-.3v4.91c-.42,0-.83-.08-1.25-.11v-5q3.72.31,7.44,1Z" transform="translate(-34.78 -27.27)" fill="#530c41"/><path d="M49.08,58.63l-.32,0,1.41,3.05a.17.17,0,0,0,.14.09l.06,0a.16.16,0,0,0,.07-.22Z" transform="translate(-34.78 -27.27)" fill="#06082d"/><path d="M46.39,59l-.33,0,1.85,2.72a.15.15,0,0,0,.12.07l.09,0a.17.17,0,0,0,0-.23Z" transform="translate(-34.78 -27.27)" fill="#06082d"/><path d="M51.52,58.41l.92,3.28a.16.16,0,0,0,.14.11h0a.16.16,0,0,0,.1-.2l-.9-3.2Z" transform="translate(-34.78 -27.27)" fill="#06082d"/><path d="M54.23,58.26l.48,3.41a.15.15,0,0,0,.15.13h0a.15.15,0,0,0,.12-.17l-.47-3.38Z" transform="translate(-34.78 -27.27)" fill="#06082d"/><path d="M57,58.2v3.45a.15.15,0,1,0,.3,0V58.2Z" transform="translate(-34.78 -27.27)" fill="#06082d"/><path d="M59.84,58.25l-.47,3.38a.16.16,0,0,0,.13.17h0a.16.16,0,0,0,.15-.13l.47-3.41Z" transform="translate(-34.78 -27.27)" fill="#06082d"/><path d="M62.55,58.39l-.9,3.2a.17.17,0,0,0,.1.2h0a.16.16,0,0,0,.15-.11l.92-3.28Z" transform="translate(-34.78 -27.27)" fill="#06082d"/><path d="M65.29,58.63l-1.35,2.93a.17.17,0,0,0,.06.22l.07,0a.15.15,0,0,0,.13-.09l1.41-3.05Z" transform="translate(-34.78 -27.27)" fill="#06082d"/><path d="M68,59l-1.76,2.58a.19.19,0,0,0,0,.23.14.14,0,0,0,.09,0,.17.17,0,0,0,.12-.07L68.32,59Z" transform="translate(-34.78 -27.27)" fill="#06082d"/><path d="M45.8,61.55l-1.37-1.34a3.29,3.29,0,0,0,1.17.23l0-1.37-2.48.41,2.44,2.27a.14.14,0,0,0,.21,0A.14.14,0,0,0,45.8,61.55Z" transform="translate(-34.78 -27.27)" fill="#0d0e36"/><path d="M68.65,59.06l0,1.38a3.35,3.35,0,0,0,1.3-.28l-1.43,1.39a.13.13,0,0,0,0,.2.13.13,0,0,0,.2,0l2.44-2.27Z" transform="translate(-34.78 -27.27)" fill="#0d0e36"/><rect x="20.1" y="71" width="1.55" height="9.19" fill="#aa7fb9" opacity="0.4"/><rect x="20.1" y="110.08" width="1.55" height="9.19" fill="#aa7fb9" opacity="0.4"/><path d="M75.2,122,75,116.67l-.05-.26a309.32,309.32,0,0,0-35.64.18l0,.26-.19,5.35A284.37,284.37,0,0,1,75.2,122Z" transform="translate(-34.78 -27.27)" fill="#2a1041" opacity="0.1"/><path d="M76.63,161.53l-.19-5.39c-12.75-.63-25.33-1-38.59.19l-.18,5.39A328.85,328.85,0,0,1,76.63,161.53Z" transform="translate(-34.78 -27.27)" fill="#2a1041" opacity="0.1"/></svg>